<?xml version="1.0" encoding="UTF-8" standalone="no"?>
<svg
   enable-background="new 0 0 515.91 728.5"
   height="347.883"
   id="Layer_1"
   version="1.1"
   viewBox="0 0 500.00003 347.883"
   width="500"
   xml:space="preserve"
   sodipodi:docname="wiki.svg"
   inkscape:version="1.4 (e7c3feb100, 2024-10-09)"
   xmlns:inkscape="http://www.inkscape.org/namespaces/inkscape"
   xmlns:sodipodi="http://sodipodi.sourceforge.net/DTD/sodipodi-0.dtd"
   xmlns="http://www.w3.org/2000/svg"
   xmlns:svg="http://www.w3.org/2000/svg"><sodipodi:namedview
     id="namedview1"
     pagecolor="#505050"
     bordercolor="#eeeeee"
     borderopacity="1"
     inkscape:showpageshadow="0"
     inkscape:pageopacity="0"
     inkscape:pagecheckerboard="0"
     inkscape:deskcolor="#505050"
     inkscape:zoom="2.328125"
     inkscape:cx="256"
     inkscape:cy="187.27517"
     inkscape:window-width="2560"
     inkscape:window-height="1403"
     inkscape:window-x="0"
     inkscape:window-y="0"
     inkscape:window-maximized="1"
     inkscape:current-layer="Layer_1" /><defs
     id="defs7" /><path
     d="m 499.64486,3.7109375e-5 c 0,0 -77.57695,0 -103.36559,0 L 388.885,1.2722363 v 9.9332227 c 0,1.16665 3.52763,2.144434 4.5055,2.872197 0.93327,0.788867 3.46101,1.216651 4.49989,1.216651 l 9.36663,0.46666 c 10.62201,0.5 13.85539,2.805527 17.99413,6.694365 4.06115,4.027734 4.72778,10.860986 1.56115,20.466436 l -91.35448,238.491762 -3.48886,-1.03887 -58.03833,-130.54298 c 0.84451,-1.96109 1.35,-3.06107 1.35,-3.06107 l 47.51055,-97.654458 c 5.52778,-10.299892 10.87778,-19.505351 13.5944,-23.794179 4.96102,-7.822139 7.37762,-9.299893 20.90528,-9.983223 2.76113,0 3.82212,-1.355537 3.82212,-4.099951 V 1.361123 L 360.4186,0.30002539 c 0,0 -56.79928,-0.1944375 -82.66019,0 l 0.0162,1.01666411 v 9.8832225 c 0,1.205537 -0.66662,2.166641 0.25,2.894404 0.97775,0.788887 1.38887,1.194434 2.43887,1.194434 l 3.87225,0.494443 c 10.57201,0.499981 15.29977,3.533291 16.73865,5.438828 2.52776,3.416631 3.7055,7.061036 -2.41112,21.72753 L 262.08039,123.05977 229.01973,48.749482 C 218.18098,25.005313 215.4976,17.655391 231.84187,16.283174 l 4.38886,-1.016651 c 3.14439,0 2.6555,-1.244423 2.6555,-3.605507 V 1.2722363 L 238.5585,0.42225 c 0,0 -60.55495,0 -88.18235,0.0166211 l -0.37774,1.016666 V 11.87208 c 0,2.338867 2.30551,2.938858 6.58326,3.583291 15.30526,2.199981 15.03864,3.961065 30.16064,36.921817 2.26114,4.938828 8.93888,19.833105 8.93888,19.833105 l 34.4663,74.393627 c 0,0 3.911,9.55544 10.02763,24.38859 l -50.08828,109.79321 -2.86116,-0.80555 c 0,0 -77.72695,-180.10352 -100.204462,-240.363959 -2.366627,-6.205479 -3.394377,-10.849873 -3.394377,-13.710957 0,-6.122149 5.022254,-9.438779 15.066509,-9.883213 l 15.28314,-0.55001 c 3.12776,0 8.24439,-1.311084 8.24439,-4.038838 V 1.5499707 l -4.60551,-1.02221191 c 0,0 -95.221099,-0.116625 -114.4542419,0 L 0,1.5499805 V 11.949863 c 0,1.866641 2.4888773,3.027735 6.8166315,3.522178 11.8276365,0.71666 19.7720185,2.772188 23.4941485,6.238818 3.711125,3.488858 7.738879,12.30542 12.961008,26.044151 28.260777,74.57695 88.343472,207.66433 117.587512,283.47458 8.40549,20.68312 19.02201,23.90529 31.84965,-0.64998 13.21651,-26.93302 39.87741,-86.71569 59.32716,-130.84298 18.19416,44.02173 42.96619,103.57661 54.91608,130.55967 9.511,21.59418 20.36077,23.7275 31.36628,0.6444 28.79415,-70.2992 112.88759,-281.863473 112.88759,-281.863473 3.63328,-10.383223 8.71102,-18.383135 15.25541,-24.19418 6.49438,-5.738828 16.16089,-8.983233 29.71626,-9.616553 2.74451,0 3.82227,-1.38332 3.82227,-4.061074 V 1.2721973 L 499.64438,0 Z"
     id="Wikipedia"
     style="fill:#ffffff;fill-opacity:1;stroke-width:1.25" /></svg>
